<mxfile host="app.diagrams.net" modified="2024-05-12T02:56:49.615Z" agent="Mozilla/5.0 (Macintosh; Intel Mac OS X 10.15; rv:125.0) Gecko/20100101 Firefox/125.0" etag="6NCCp3VjbPZCd10_4WPQ" version="24.4.0" type="device">
  <diagram name="PÃ¡gina-1" id="FojRBnNVf_GXdgkh7Eau">
    <mxGraphModel dx="1283" dy="797" grid="1" gridSize="10" guides="1" tooltips="1" connect="1" arrows="1" fold="1" page="1" pageScale="1" pageWidth="827" pageHeight="1169" math="0" shadow="0">
      <root>
        <mxCell id="0" />
        <mxCell id="1" parent="0" />
        <mxCell id="odUByXAutW_Kohl7VcKu-1" value="" style="group" vertex="1" connectable="0" parent="1">
          <mxGeometry x="90" y="60" width="510" height="440" as="geometry" />
        </mxCell>
        <mxCell id="babQZyQT34kZDh7thiEa-54" value="" style="group" parent="odUByXAutW_Kohl7VcKu-1" vertex="1" connectable="0">
          <mxGeometry y="107" width="210" height="226" as="geometry" />
        </mxCell>
        <mxCell id="babQZyQT34kZDh7thiEa-1" value="7" style="ellipse;whiteSpace=wrap;html=1;aspect=fixed;fontSize=24;textShadow=0;labelBackgroundColor=default;shadow=1;strokeWidth=2;" parent="babQZyQT34kZDh7thiEa-54" vertex="1">
          <mxGeometry x="85" y="10" width="40" height="40" as="geometry" />
        </mxCell>
        <mxCell id="babQZyQT34kZDh7thiEa-2" value="6" style="ellipse;whiteSpace=wrap;html=1;aspect=fixed;fontSize=24;textShadow=0;labelBackgroundColor=default;shadow=1;strokeWidth=2;" parent="babQZyQT34kZDh7thiEa-54" vertex="1">
          <mxGeometry x="170" y="70" width="40" height="40" as="geometry" />
        </mxCell>
        <mxCell id="babQZyQT34kZDh7thiEa-3" value="5" style="ellipse;whiteSpace=wrap;html=1;aspect=fixed;fontSize=24;textShadow=0;labelBackgroundColor=default;shadow=1;strokeWidth=2;" parent="babQZyQT34kZDh7thiEa-54" vertex="1">
          <mxGeometry x="140" y="160" width="40" height="40" as="geometry" />
        </mxCell>
        <mxCell id="babQZyQT34kZDh7thiEa-4" value="4" style="ellipse;whiteSpace=wrap;html=1;aspect=fixed;fontSize=24;textShadow=0;labelBackgroundColor=default;shadow=1;strokeWidth=2;" parent="babQZyQT34kZDh7thiEa-54" vertex="1">
          <mxGeometry x="40" y="160" width="40" height="40" as="geometry" />
        </mxCell>
        <mxCell id="babQZyQT34kZDh7thiEa-5" value="3" style="ellipse;whiteSpace=wrap;html=1;aspect=fixed;fontSize=24;textShadow=0;labelBackgroundColor=default;shadow=1;strokeWidth=2;" parent="babQZyQT34kZDh7thiEa-54" vertex="1">
          <mxGeometry x="10" y="70" width="40" height="40" as="geometry" />
        </mxCell>
        <mxCell id="babQZyQT34kZDh7thiEa-9" value="" style="endArrow=classic;html=1;rounded=0;exitX=1;exitY=0.5;exitDx=0;exitDy=0;entryX=0.5;entryY=0;entryDx=0;entryDy=0;curved=1;strokeWidth=2;" parent="babQZyQT34kZDh7thiEa-54" source="babQZyQT34kZDh7thiEa-1" target="babQZyQT34kZDh7thiEa-2" edge="1">
          <mxGeometry width="50" height="50" relative="1" as="geometry">
            <mxPoint x="180" y="280" as="sourcePoint" />
            <mxPoint x="230" y="230" as="targetPoint" />
            <Array as="points">
              <mxPoint x="180" y="20" />
            </Array>
          </mxGeometry>
        </mxCell>
        <mxCell id="babQZyQT34kZDh7thiEa-11" value="" style="endArrow=classic;html=1;rounded=0;exitX=1;exitY=1;exitDx=0;exitDy=0;entryX=1;entryY=0;entryDx=0;entryDy=0;curved=1;strokeWidth=2;" parent="babQZyQT34kZDh7thiEa-54" source="babQZyQT34kZDh7thiEa-2" target="babQZyQT34kZDh7thiEa-3" edge="1">
          <mxGeometry width="50" height="50" relative="1" as="geometry">
            <mxPoint x="210" y="150" as="sourcePoint" />
            <mxPoint x="275" y="190" as="targetPoint" />
            <Array as="points">
              <mxPoint x="210" y="140" />
            </Array>
          </mxGeometry>
        </mxCell>
        <mxCell id="babQZyQT34kZDh7thiEa-12" value="" style="endArrow=classic;html=1;rounded=0;exitX=0;exitY=1;exitDx=0;exitDy=0;entryX=1;entryY=1;entryDx=0;entryDy=0;curved=1;strokeWidth=2;" parent="babQZyQT34kZDh7thiEa-54" source="babQZyQT34kZDh7thiEa-3" target="babQZyQT34kZDh7thiEa-4" edge="1">
          <mxGeometry width="50" height="50" relative="1" as="geometry">
            <mxPoint x="119" y="190" as="sourcePoint" />
            <mxPoint x="89" y="252" as="targetPoint" />
            <Array as="points">
              <mxPoint x="125" y="226" />
            </Array>
          </mxGeometry>
        </mxCell>
        <mxCell id="babQZyQT34kZDh7thiEa-13" value="" style="endArrow=classic;html=1;rounded=0;exitX=0;exitY=0.5;exitDx=0;exitDy=0;entryX=0;entryY=1;entryDx=0;entryDy=0;curved=1;strokeWidth=2;" parent="babQZyQT34kZDh7thiEa-54" source="babQZyQT34kZDh7thiEa-4" target="babQZyQT34kZDh7thiEa-5" edge="1">
          <mxGeometry width="50" height="50" relative="1" as="geometry">
            <mxPoint x="10" y="180" as="sourcePoint" />
            <mxPoint x="-20" y="242" as="targetPoint" />
            <Array as="points">
              <mxPoint y="160" />
            </Array>
          </mxGeometry>
        </mxCell>
        <mxCell id="babQZyQT34kZDh7thiEa-15" value="" style="endArrow=classic;html=1;rounded=0;exitX=0.3;exitY=0;exitDx=0;exitDy=0;entryX=0;entryY=0.5;entryDx=0;entryDy=0;curved=1;strokeWidth=2;exitPerimeter=0;" parent="babQZyQT34kZDh7thiEa-54" source="babQZyQT34kZDh7thiEa-5" target="babQZyQT34kZDh7thiEa-1" edge="1">
          <mxGeometry width="50" height="50" relative="1" as="geometry">
            <mxPoint x="10" y="36" as="sourcePoint" />
            <mxPoint x="-14" y="-40" as="targetPoint" />
            <Array as="points">
              <mxPoint x="30" y="20" />
            </Array>
          </mxGeometry>
        </mxCell>
        <mxCell id="babQZyQT34kZDh7thiEa-16" value="" style="endArrow=classic;html=1;rounded=0;exitX=0;exitY=0.5;exitDx=0;exitDy=0;entryX=0.775;entryY=1.025;entryDx=0;entryDy=0;curved=1;strokeWidth=3;entryPerimeter=0;strokeColor=#FF0080;dashed=1;dashPattern=1 1;" parent="babQZyQT34kZDh7thiEa-54" source="babQZyQT34kZDh7thiEa-2" target="babQZyQT34kZDh7thiEa-1" edge="1">
          <mxGeometry width="50" height="50" relative="1" as="geometry">
            <mxPoint x="165" y="100" as="sourcePoint" />
            <mxPoint x="100" y="60" as="targetPoint" />
            <Array as="points">
              <mxPoint x="120" y="90" />
            </Array>
          </mxGeometry>
        </mxCell>
        <mxCell id="babQZyQT34kZDh7thiEa-17" value="" style="endArrow=classic;html=1;rounded=0;exitX=0;exitY=0;exitDx=0;exitDy=0;entryX=0;entryY=1;entryDx=0;entryDy=0;curved=1;strokeWidth=3;strokeColor=#FF0080;dashed=1;dashPattern=1 1;" parent="babQZyQT34kZDh7thiEa-54" source="babQZyQT34kZDh7thiEa-3" target="babQZyQT34kZDh7thiEa-2" edge="1">
          <mxGeometry width="50" height="50" relative="1" as="geometry">
            <mxPoint x="140" y="160" as="sourcePoint" />
            <mxPoint x="170" y="98" as="targetPoint" />
            <Array as="points">
              <mxPoint x="134" y="124" />
            </Array>
          </mxGeometry>
        </mxCell>
        <mxCell id="babQZyQT34kZDh7thiEa-18" value="" style="endArrow=classic;html=1;rounded=0;exitX=1;exitY=0;exitDx=0;exitDy=0;entryX=0;entryY=0.5;entryDx=0;entryDy=0;curved=1;strokeWidth=3;strokeColor=#FF0080;dashed=1;dashPattern=1 1;" parent="babQZyQT34kZDh7thiEa-54" source="babQZyQT34kZDh7thiEa-4" target="babQZyQT34kZDh7thiEa-3" edge="1">
          <mxGeometry width="50" height="50" relative="1" as="geometry">
            <mxPoint x="80" y="236" as="sourcePoint" />
            <mxPoint x="156" y="227" as="targetPoint" />
            <Array as="points">
              <mxPoint x="110" y="150" />
            </Array>
          </mxGeometry>
        </mxCell>
        <mxCell id="babQZyQT34kZDh7thiEa-19" value="" style="endArrow=classic;html=1;rounded=0;exitX=1;exitY=1;exitDx=0;exitDy=0;entryX=0.5;entryY=0;entryDx=0;entryDy=0;curved=1;strokeWidth=3;strokeColor=#FF0080;dashed=1;dashPattern=1 1;" parent="babQZyQT34kZDh7thiEa-54" source="babQZyQT34kZDh7thiEa-5" target="babQZyQT34kZDh7thiEa-4" edge="1">
          <mxGeometry width="50" height="50" relative="1" as="geometry">
            <mxPoint x="10" y="114" as="sourcePoint" />
            <mxPoint x="34" y="190" as="targetPoint" />
            <Array as="points">
              <mxPoint x="80" y="120" />
            </Array>
          </mxGeometry>
        </mxCell>
        <mxCell id="babQZyQT34kZDh7thiEa-20" value="" style="endArrow=classic;html=1;rounded=0;entryX=1;entryY=0.5;entryDx=0;entryDy=0;curved=1;strokeWidth=3;exitX=0;exitY=1;exitDx=0;exitDy=0;strokeColor=#FF0080;dashed=1;dashPattern=1 1;" parent="babQZyQT34kZDh7thiEa-54" source="babQZyQT34kZDh7thiEa-1" target="babQZyQT34kZDh7thiEa-5" edge="1">
          <mxGeometry width="50" height="50" relative="1" as="geometry">
            <mxPoint x="80" y="60" as="sourcePoint" />
            <mxPoint x="30" y="60" as="targetPoint" />
            <Array as="points">
              <mxPoint x="95" y="80" />
            </Array>
          </mxGeometry>
        </mxCell>
        <mxCell id="babQZyQT34kZDh7thiEa-51" value="M=1" style="text;html=1;align=center;verticalAlign=middle;whiteSpace=wrap;rounded=0;fontSize=18;" parent="babQZyQT34kZDh7thiEa-54" vertex="1">
          <mxGeometry x="150" width="60" height="30" as="geometry" />
        </mxCell>
        <mxCell id="babQZyQT34kZDh7thiEa-52" value="M=0" style="text;html=1;align=center;verticalAlign=middle;whiteSpace=wrap;rounded=0;fontSize=18;fontColor=#FF0080;" parent="babQZyQT34kZDh7thiEa-54" vertex="1">
          <mxGeometry x="85" y="80" width="60" height="30" as="geometry" />
        </mxCell>
        <mxCell id="babQZyQT34kZDh7thiEa-21" value="0" style="ellipse;whiteSpace=wrap;html=1;aspect=fixed;fontSize=24;textShadow=0;labelBackgroundColor=default;shadow=1;strokeWidth=2;" parent="odUByXAutW_Kohl7VcKu-1" vertex="1">
          <mxGeometry x="316" y="200" width="40" height="40" as="geometry" />
        </mxCell>
        <mxCell id="babQZyQT34kZDh7thiEa-22" value="" style="endArrow=classic;html=1;rounded=0;exitX=0.5;exitY=1;exitDx=0;exitDy=0;curved=1;strokeWidth=2;entryX=0.5;entryY=1;entryDx=0;entryDy=0;" parent="odUByXAutW_Kohl7VcKu-1" source="babQZyQT34kZDh7thiEa-21" edge="1" target="babQZyQT34kZDh7thiEa-4">
          <mxGeometry width="50" height="50" relative="1" as="geometry">
            <mxPoint x="376" y="210" as="sourcePoint" />
            <mxPoint x="250" y="340" as="targetPoint" />
            <Array as="points">
              <mxPoint x="280" y="320" />
              <mxPoint x="90" y="390" />
            </Array>
          </mxGeometry>
        </mxCell>
        <mxCell id="babQZyQT34kZDh7thiEa-23" value="" style="endArrow=classic;html=1;rounded=0;exitX=0.5;exitY=0;exitDx=0;exitDy=0;curved=1;strokeWidth=3;strokeColor=#FF0080;dashed=1;dashPattern=1 1;entryX=1;entryY=0;entryDx=0;entryDy=0;" parent="odUByXAutW_Kohl7VcKu-1" edge="1" target="babQZyQT34kZDh7thiEa-1" source="babQZyQT34kZDh7thiEa-21">
          <mxGeometry width="50" height="50" relative="1" as="geometry">
            <mxPoint x="316" y="240" as="sourcePoint" />
            <mxPoint x="256" y="240" as="targetPoint" />
            <Array as="points">
              <mxPoint x="180" y="30" />
            </Array>
          </mxGeometry>
        </mxCell>
        <mxCell id="babQZyQT34kZDh7thiEa-29" value="M=1" style="text;html=1;align=center;verticalAlign=middle;whiteSpace=wrap;rounded=0;fontSize=18;" parent="odUByXAutW_Kohl7VcKu-1" vertex="1">
          <mxGeometry x="350" y="360" width="60" height="30" as="geometry" />
        </mxCell>
        <mxCell id="babQZyQT34kZDh7thiEa-30" value="M=0" style="text;html=1;align=center;verticalAlign=middle;whiteSpace=wrap;rounded=0;fontSize=18;fontColor=#FF0080;" parent="odUByXAutW_Kohl7VcKu-1" vertex="1">
          <mxGeometry x="420" y="70" width="60" height="30" as="geometry" />
        </mxCell>
        <mxCell id="babQZyQT34kZDh7thiEa-36" value="1" style="ellipse;whiteSpace=wrap;html=1;aspect=fixed;fontSize=24;textShadow=0;labelBackgroundColor=default;shadow=1;strokeWidth=2;" parent="odUByXAutW_Kohl7VcKu-1" vertex="1">
          <mxGeometry x="390" y="200" width="40" height="40" as="geometry" />
        </mxCell>
        <mxCell id="babQZyQT34kZDh7thiEa-37" value="" style="endArrow=classic;html=1;rounded=0;exitX=0.5;exitY=1;exitDx=0;exitDy=0;curved=1;strokeWidth=2;entryX=0.5;entryY=1;entryDx=0;entryDy=0;" parent="odUByXAutW_Kohl7VcKu-1" source="babQZyQT34kZDh7thiEa-36" edge="1" target="babQZyQT34kZDh7thiEa-4">
          <mxGeometry width="50" height="50" relative="1" as="geometry">
            <mxPoint x="516" y="360" as="sourcePoint" />
            <mxPoint x="270" y="180" as="targetPoint" />
            <Array as="points">
              <mxPoint x="310" y="360" />
              <mxPoint x="80" y="440" />
            </Array>
          </mxGeometry>
        </mxCell>
        <mxCell id="babQZyQT34kZDh7thiEa-38" value="" style="endArrow=classic;html=1;rounded=0;exitX=0.5;exitY=0;exitDx=0;exitDy=0;curved=1;strokeWidth=3;strokeColor=#FF0080;dashed=1;dashPattern=1 1;entryX=0.5;entryY=0;entryDx=0;entryDy=0;" parent="odUByXAutW_Kohl7VcKu-1" edge="1" target="babQZyQT34kZDh7thiEa-1" source="babQZyQT34kZDh7thiEa-36">
          <mxGeometry width="50" height="50" relative="1" as="geometry">
            <mxPoint x="456" y="160" as="sourcePoint" />
            <mxPoint x="350" y="260" as="targetPoint" />
            <Array as="points">
              <mxPoint x="330" y="50" />
              <mxPoint x="130" y="50" />
            </Array>
          </mxGeometry>
        </mxCell>
        <mxCell id="babQZyQT34kZDh7thiEa-44" value="2" style="ellipse;whiteSpace=wrap;html=1;aspect=fixed;fontSize=24;textShadow=0;labelBackgroundColor=default;shadow=1;strokeWidth=2;" parent="odUByXAutW_Kohl7VcKu-1" vertex="1">
          <mxGeometry x="470" y="200" width="40" height="40" as="geometry" />
        </mxCell>
        <mxCell id="babQZyQT34kZDh7thiEa-45" value="" style="endArrow=classic;html=1;rounded=0;exitX=0.5;exitY=1;exitDx=0;exitDy=0;curved=1;strokeWidth=2;entryX=0;entryY=1;entryDx=0;entryDy=0;" parent="odUByXAutW_Kohl7VcKu-1" source="babQZyQT34kZDh7thiEa-44" edge="1" target="babQZyQT34kZDh7thiEa-4">
          <mxGeometry width="50" height="50" relative="1" as="geometry">
            <mxPoint x="616" y="200" as="sourcePoint" />
            <mxPoint x="300" y="440" as="targetPoint" />
            <Array as="points">
              <mxPoint x="290" y="430" />
              <mxPoint x="40" y="430" />
            </Array>
          </mxGeometry>
        </mxCell>
        <mxCell id="babQZyQT34kZDh7thiEa-46" value="" style="endArrow=classic;html=1;rounded=0;exitX=0.5;exitY=0;exitDx=0;exitDy=0;curved=1;strokeWidth=3;strokeColor=#FF0080;dashed=1;dashPattern=1 1;entryX=0;entryY=0;entryDx=0;entryDy=0;" parent="odUByXAutW_Kohl7VcKu-1" edge="1" target="babQZyQT34kZDh7thiEa-1" source="babQZyQT34kZDh7thiEa-44">
          <mxGeometry width="50" height="50" relative="1" as="geometry">
            <mxPoint x="486" y="80" as="sourcePoint" />
            <mxPoint x="390" y="80" as="targetPoint" />
            <Array as="points">
              <mxPoint x="370" />
              <mxPoint x="70" y="40" />
            </Array>
          </mxGeometry>
        </mxCell>
      </root>
    </mxGraphModel>
  </diagram>
</mxfile>
